<?xml version="1.0" standalone="no"?>
<!DOCTYPE svg PUBLIC "-//W3C//DTD SVG 1.1//EN" "http://www.w3.org/Graphics/SVG/1.1/DTD/svg11.dtd" >
<svg xmlns="http://www.w3.org/2000/svg" xmlns:xlink="http://www.w3.org/1999/xlink" version="1.1">
<metadata></metadata>
<defs>
<font id="sf_collegiateitalic" horiz-adv-x="1229" >
<font-face units-per-em="2048" ascent="1638" descent="-410" />
<missing-glyph horiz-adv-x="614" />
<glyph horiz-adv-x="0" />
<glyph horiz-adv-x="682" />
<glyph unicode=" "  horiz-adv-x="614" />
<glyph unicode="&#x09;" horiz-adv-x="614" />
<glyph unicode="&#xa0;" horiz-adv-x="614" />
<glyph unicode="!" horiz-adv-x="717" d="M31 0l45 512h41l12 610l45 516h512l-45 -516l-94 -610h41l-45 -512h-512zM76 41h430l37 430h-43l100 653l41 473h-430l-41 -473l-14 -653h-43zM142 102l27 308h307l-26 -308h-308zM219 512l12 614l36 410h307l-35 -410l-95 -614h-225z" />
<glyph unicode="&#x22;" horiz-adv-x="1106" d="M95 1126l45 512h901l-40 -452l-445 -410l31 350h-39l-381 -350l31 350h-103zM140 1167h103l-26 -290l317 290h98l-26 -290l357 327l33 393h-819zM207 1229l26 307h308l-27 -307l-223 -205l18 205h-102zM596 1229l27 307h307l-27 -307l-223 -205l18 205h-102z" />
<glyph unicode="#" horiz-adv-x="1288" d="M72 676l121 696h163l29 164h696l-28 -164h164l-121 -696h-164l-29 -164h-696l29 164h-164zM121 717h164l-29 -164h614l29 164h164l104 614h-163l28 164h-614l-29 -164h-164zM194 778l28 164h164l27 164h-164l29 164h163l29 164h164l-29 -164h164l29 164h164l-29 -164h164 l-29 -164h-164l-26 -164h163l-28 -164h-164l-29 -164h-164l29 164h-164l-28 -164h-164l28 164h-163zM550 942h164l26 164h-163z" />
<glyph unicode="$" horiz-adv-x="1147" d="M58 315l29 330h176l-161 176l44 502l234 215l9 100h512l-9 -100l197 -215l-29 -330h-178l162 -178l-44 -500l-233 -215l-9 -100h-512l9 100zM101 334l196 -215l-6 -78h430l6 78l235 215l39 463l-217 237h238l24 271l-196 215l6 77h-430l-6 -77l-235 -215l-40 -465 l215 -236h-235zM165 358l15 185h277l-7 -92h184l19 229h-276l-168 184l36 416l200 184h31l6 72h308l-7 -72h31l168 -184l-15 -184h-277l7 92h-184l-19 -232h276l168 -184l-36 -414l-201 -184h-30l-6 -72h-308l7 72h-31z" />
<glyph unicode="%" horiz-adv-x="2308" d="M100 797l53 598l265 243h454l200 -219l65 219l497 -90l-152 -508l49 45h455l222 -243l-52 -598l-266 -244h-454l-200 219l-65 -219l-497 90l152 508l-49 -45h-454zM143 815l202 -221h418l142 131l-179 -602l417 -76l133 442l-21 -227l203 -221h418l240 221l49 561 l-202 221h-418l-142 -131l179 603l-417 75l-133 -444l21 229l-203 221h-418l-239 -221zM185 831l46 529l214 196h385l180 -196l-46 -529l-214 -196h-385zM513 952h143l26 287h-143zM777 156l415 1388l339 -61l-415 -1389zM1298 279l47 528l214 197h385l179 -197l-46 -528 l-214 -197h-385zM1626 399h143l26 287h-143z" />
<glyph unicode="&#x26;" horiz-adv-x="1165" d="M58 315l37 418l93 86l-78 86l36 418l234 215l9 100h512l-9 -100l197 -215l-29 -330h-277l-30 -348h295l-27 -311l-254 -234l-9 -100h-512l9 100zM101 334l196 -215l-6 -78h430l6 78l254 233l23 252h-295l36 430h277l24 271l-196 215l6 77h-430l-6 -77l-235 -215l-32 -381 l95 -105l-114 -104zM165 358l29 332l140 129l-118 129l29 332l200 184h31l6 72h308l-7 -72h31l168 -184l-15 -184h-277l7 92h-184l-19 -232h184l-25 -276h-184l-19 -229h184l7 92h295l-14 -166l-221 -203h-30l-6 -72h-308l7 72h-31z" />
<glyph unicode="'" horiz-adv-x="717" d="M95 1126l45 512h512l-40 -452l-445 -410l31 350h-103zM140 1167h103l-26 -290l356 327l34 393h-430zM207 1229l26 307h308l-27 -307l-223 -205l18 205h-102z" />
<glyph unicode="(" horiz-adv-x="922" d="M54 264l97 1110l287 264h453l-45 -512h-205l-53 -614h205l-45 -512h-453zM96 283l221 -242h394l37 430h-205l61 696h205l37 430h-393l-263 -241zM160 307l90 1024l222 205h307l-26 -307h-205l-72 -819h205l-27 -308h-307z" />
<glyph unicode=")" horiz-adv-x="922" d="M31 0l45 512h205l53 614h-205l45 512h453l240 -264l-96 -1110l-288 -264h-452zM76 41h393l262 242l94 1073l-221 241h-393l-37 -430h205l-62 -696h-204zM142 102l27 308h205l71 819h-204l26 307h307l188 -205l-90 -1024l-222 -205h-308z" />
<glyph unicode="*" horiz-adv-x="1147" d="M88 853q0 100 86 171q-59 56 -59 136q0 89 67 155q67 67 157 67q34 0 67 -12q22 73 81 120q58 46 131 46q74 0 124 -46q52 -46 61 -120q34 12 68 12q80 0 134 -55q54 -54 54 -132q0 -100 -86 -171q59 -56 59 -136q0 -88 -68 -156q-68 -66 -156 -66q-34 0 -67 12 q-23 -74 -81 -120t-132 -46q-72 0 -124 46q-51 46 -60 120q-35 -12 -69 -12q-79 0 -133 54q-54 55 -54 133zM129 856q0 -63 43 -106t108 -43q31 0 103 32q1 -186 149 -186t183 186q66 -32 97 -32q72 0 125 53q54 54 54 126t-88 138q107 71 114 154q1 5 1 8v6q0 61 -44 105 t-107 44q-31 0 -103 -32q-2 186 -150 186t-182 -186q-66 32 -97 32q-72 0 -126 -54q-53 -53 -53 -125t88 -138q-107 -71 -114 -154q-1 -5 -1 -9v-5zM191 867v3q6 59 59 88l281 58v2l3 12v2l-272 58q-42 25 -44 85v3q1 24 19 51q33 51 93 51q25 0 50 -14l170 -211q9 7 14 8 l-66 268q4 42 36 72q32 31 75 31q40 0 67 -27.5t27 -66.5q0 1 0 -2q0 -2 -1 -7l-113 -268q9 -3 14 -8l207 211q26 14 52 14q59 0 83 -51q10 -20 10 -48v-3q-5 -59 -58 -88l-284 -58q1 -1 1 -7v-1l-1 -6v-2l272 -58q42 -25 44 -85v-3q-1 -24 -19 -51q-33 -51 -93 -51 q-25 0 -50 14l-170 211q-9 -7 -14 -8l66 -268q-4 -42 -37 -73q-32 -30 -74 -30q-20 0 -37.5 7.5t-30 20t-20 29.5t-7.5 37q0 -1 0 1q0 3 1 8l114 268q-9 3 -14 8l-207 -211q-26 -14 -52 -14q-59 0 -83 51q-11 22 -11 48z" />
<glyph unicode="+" horiz-adv-x="1024" d="M85 614l35 410h205l18 205h410l-19 -205h205l-35 -410h-205l-18 -204h-410l19 204h-205zM129 655h205l-18 -204h328l18 204h204l29 328h-205l18 205h-328l-18 -205h-204zM196 717l18 205h205l17 204h205l-17 -204h204l-18 -205h-205l-17 -205h-205l17 205h-204z" />
<glyph unicode="," horiz-adv-x="717" d="M95 0l45 512h512l-40 -453l-445 -408l31 349h-103zM140 41h103l-26 -290l356 327l34 393h-430zM207 102l26 308h308l-27 -308l-223 -203l18 203h-102z" />
<glyph unicode="-" horiz-adv-x="1024" d="M85 614l35 410h819l-35 -410h-819zM129 655h737l29 328h-737zM196 717l18 205h614l-18 -205h-614z" />
<glyph unicode="." horiz-adv-x="717" d="M80 -101l45 511h512l-45 -511h-512zM125 -60h430l37 429h-430zM191 0l27 307h307l-26 -307h-308z" />
<glyph unicode="/" horiz-adv-x="825" d="M-62 88l453 1550l498 -88l-457 -1550zM-12 123l415 -76l436 1469l-417 75zM62 172l403 1348l298 -54l-403 -1347z" />
<glyph unicode="0" d="M54 264l97 1110l287 264h496l241 -264l-97 -1110l-287 -264h-496zM96 283l221 -242h459l262 242l95 1073l-222 241h-458l-263 -241zM160 307l90 1024l222 205h410l187 -205l-90 -1024l-222 -205h-410zM476 410h205l72 819h-205z" />
<glyph unicode="1" horiz-adv-x="717" d="M31 0l143 1638h512l-143 -1638h-512zM76 41h430l135 1556h-430zM142 102l125 1434h307l-124 -1434h-308z" />
<glyph unicode="2" d="M31 0l70 811l232 213h-213l31 350l287 264h496l241 -264l-48 -547l-287 -264h-248l-4 -51h512l-45 -512h-1024zM76 41h942l37 430h-512l12 133h270l262 242l46 510l-222 241h-458l-263 -241l-25 -291h272l-296 -272zM142 102l59 666l222 205h307l23 256h-205l-9 -103 h-308l19 205l222 205h410l187 -205l-41 -461l-222 -204h-307l-23 -256h512l-26 -308h-820z" />
<glyph unicode="3" horiz-adv-x="1249" d="M55 285l30 329h328l34 410h-307l31 350l288 264h495l241 -264l-39 -454l-109 -101l91 -100l-39 -455l-288 -264h-496zM98 303l240 -262h459l262 242l37 417l-109 119l129 119l37 418l-221 241h-459l-262 -241l-26 -291h308l-43 -492h-328zM162 328l16 184h328l-9 -102 h204l23 256h-205l27 307h205l22 256h-205l-9 -103h-307l18 205l223 205h409l188 -205l-33 -368l-156 -144l131 -143l-33 -369l-222 -205h-409z" />
<glyph unicode="4" d="M80 563l94 1075h1024l-143 -1638h-512l49 563h-512zM125 604h512l-49 -563h430l135 1556h-942zM191 666l76 870h307l-49 -563h205l49 563h307l-124 -1434h-308l49 564h-512z" />
<glyph unicode="5" d="M54 264l31 350h213l-195 213l71 811h1024l-45 -512h-512l-4 -51h248l240 -264l-47 -547l-287 -264h-496zM96 283l221 -242h459l262 242l45 510l-221 241h-270l12 133h512l37 430h-942l-66 -751l249 -273h-272zM160 307l18 205h307l-9 -102h205l22 256h-307l-187 204 l58 666h819l-26 -307h-512l-23 -256h308l187 -205l-41 -461l-222 -205h-410z" />
<glyph unicode="6" d="M54 264l97 1110l287 264h496l241 -264l-31 -350h-213l194 -213l-47 -547l-287 -264h-496zM96 283l221 -242h459l262 242l45 510l-248 272h272l26 291l-222 241h-458l-263 -241zM160 307l90 1024l222 205h410l187 -205l-18 -205h-308l10 103h-205l-23 -256h308l187 -205 l-41 -461l-222 -205h-410zM476 410h205l22 256h-204z" />
<glyph unicode="7" horiz-adv-x="1280" d="M59 0l536 1024h-475l54 614h1126l-37 -430l-632 -1208h-572zM125 41h483l615 1176l32 380h-1044l-46 -532h495zM224 102l590 1127h-266l-9 -103h-308l36 410h922l-27 -307l-590 -1127h-348z" />
<glyph unicode="8" horiz-adv-x="1270" d="M55 285l37 413l131 121l-91 101l39 454l288 264h495l241 -264l-39 -454l-109 -101l110 -121l-37 -413l-309 -285h-496zM98 303l240 -262h459l284 262l33 377l-127 139l129 119l37 418l-221 241h-459l-262 -241l-37 -418l109 -119l-152 -139zM162 328l28 327l179 164 l-131 144l32 368l223 205h409l188 -205l-33 -368l-156 -144l150 -164l-29 -327l-245 -226h-409zM497 410h204l23 256h-205zM546 973h205l22 256h-205z" />
<glyph unicode="9" d="M54 264l31 350h213l-195 213l48 547l287 264h496l241 -264l-97 -1110l-287 -264h-496zM96 283l221 -242h459l262 242l95 1073l-222 241h-458l-263 -241l-45 -510l249 -273h-272zM160 307l18 205h307l-9 -102h205l22 256h-307l-187 204l41 461l222 205h410l187 -205 l-90 -1024l-222 -205h-410zM525 973h205l23 256h-205z" />
<glyph unicode=":" horiz-adv-x="717" d="M49 0l44 512h512l-44 -512h-512zM93 41h430l38 430h-430zM112 717l44 512h512l-44 -512h-512zM156 758h430l38 430h-430zM160 102l27 308h308l-28 -308h-307zM222 819l28 307h307l-28 -307h-307z" />
<glyph unicode=";" horiz-adv-x="717" d="M63 0l46 512h512l-39 -453l-446 -408l30 349h-103zM109 41h102l-26 -290l357 327l35 393h-431zM127 717l44 512h512l-44 -512h-512zM171 758h430l38 430h-430zM175 102l27 308h307l-27 -308l-222 -203l18 203h-103zM238 819l27 307h307l-27 -307h-307z" />
<glyph unicode="=" horiz-adv-x="1024" d="M71 451l63 737h819l-63 -737h-819zM115 492h737l57 655h-737zM181 553l19 205h614l-18 -205h-615zM210 881l18 204h615l-19 -204h-614z" />
<glyph unicode="?" d="M31 0l70 811l232 213h-213l31 350l287 264h496l241 -264l-48 -547l-287 -264h-248l-49 -563h-512zM76 41h430l49 563h270l262 242l46 510l-222 241h-458l-263 -241l-25 -291h272l-296 -272zM142 102l27 308h307l-26 -308h-308zM178 512l23 256l222 205h307l23 256h-205 l-9 -103h-308l19 205l222 205h410l187 -205l-41 -461l-222 -204h-307l-14 -154h-307z" />
<glyph unicode="A" horiz-adv-x="1188" d="M-71 0l448 1638h579l160 -1638h-516l-16 205h-86l-54 -205h-515zM-17 41h431l52 205h156l17 -205h432l-153 1556h-512zM60 102l392 1434h409l141 -1434h-307l-17 205h-258l-52 -205h-308zM501 614h151l-38 445z" />
<glyph unicode="B" horiz-adv-x="1249" d="M31 0l143 1638h760l241 -264l-39 -454l-110 -101l111 -121l-37 -413l-309 -285h-760zM76 41h700l285 262l33 377l-127 139l129 119l37 418l-222 241h-700zM142 102l125 1434h615l187 -205l-33 -368l-155 -144l149 -164l-29 -327l-244 -226h-615zM476 410h205l22 256h-204 zM525 973h205l23 256h-205z" />
<glyph unicode="C" d="M54 264l97 1110l287 264h496l241 -264l-39 -452h-369l-18 -205h368l-39 -453l-287 -264h-496zM96 283l221 -242h459l262 242l35 393h-368l24 287h369l35 393l-222 241h-458l-263 -241zM160 307l90 1024l222 205h410l187 -205l-28 -307h-307l19 205h-205l-72 -819h205 l18 204h308l-28 -307l-222 -205h-410z" />
<glyph unicode="D" d="M31 0l143 1638h760l241 -264l-97 -1110l-287 -264h-760zM76 41h700l262 242l95 1073l-222 241h-700zM142 102l125 1434h615l187 -205l-90 -1024l-222 -205h-615zM476 410h205l72 819h-205z" />
<glyph unicode="E" horiz-adv-x="1126" d="M31 0l143 1638h922l-45 -512h-410l-4 -51h410l-46 -512h-409l-4 -51h409l-45 -512h-921zM76 41h839l37 430h-409l12 133h410l36 430h-409l12 133h410l37 430h-840zM142 102l125 1434h717l-27 -307h-409l-23 -256h410l-27 -307h-409l-23 -256h410l-27 -308h-717z" />
<glyph unicode="F" horiz-adv-x="1075" d="M31 0l143 1638h922l-45 -512h-410l-4 -51h410l-46 -512h-409l-49 -563h-512zM76 41h430l49 563h410l36 430h-409l12 133h410l37 430h-840zM142 102l125 1434h717l-27 -307h-409l-23 -256h410l-27 -307h-409l-49 -564h-308z" />
<glyph unicode="G" d="M54 264l97 1110l287 264h496l241 -264l-97 -1110l-287 -264h-496zM96 283l221 -242h459l262 242l95 1073l-222 241h-458l-263 -241zM160 307l90 1024l222 205h410l187 -205l-28 -307h-307l19 205h-205l-72 -819h205l13 153h-102l26 307h410l-49 -563l-222 -205h-410z" />
<glyph unicode="H" d="M31 0l143 1638h1024l-143 -1638h-1024zM76 41h942l135 1556h-942zM142 102l125 1434h307l-49 -563h205l49 563h307l-124 -1434h-308l49 564h-204l-49 -564h-308z" />
<glyph unicode="I" horiz-adv-x="717" d="M31 0l143 1638h512l-143 -1638h-512zM76 41h430l135 1556h-430zM142 102l125 1434h307l-124 -1434h-308z" />
<glyph unicode="J" horiz-adv-x="1178" d="M3 264l39 453h512l81 921h512l-120 -1374l-288 -264h-495zM45 283l221 -242h459l262 242l115 1314h-430l-80 -921h-512zM109 307l27 307h307l-18 -204h205l98 1126h307l-107 -1229l-222 -205h-410z" />
<glyph unicode="K" horiz-adv-x="1272" d="M31 0l143 1638h512l-7 -84l38 84h524l-364 -819l221 -819h-525l-23 84l-7 -84h-512zM76 41h430l23 281l77 -281h438l-210 778l346 778h-439l-124 -280l24 280h-430zM142 102l125 1434h307l-50 -573l255 573h307l-318 -717l194 -717h-308l-154 574l-50 -574h-308z" />
<glyph unicode="L" horiz-adv-x="1075" d="M31 0l143 1638h512l-98 -1126h409l-45 -512h-921zM76 41h839l37 430h-409l98 1126h-430zM142 102l125 1434h307l-98 -1126h410l-27 -308h-717z" />
<glyph unicode="M" horiz-adv-x="1434" d="M38 0l143 1638h479l107 -338l164 338h479l-143 -1638h-512l7 82l-124 -255l-81 255l-7 -82h-512zM83 41h430l23 254l111 -357l175 357l-22 -254h430l136 1556h-410l-199 -407l-128 407h-410zM150 102l125 1434h308l159 -512l250 512h307l-125 -1434h-308l45 512 l-249 -512l-160 512l-45 -512h-307z" />
<glyph unicode="N" d="M31 0l143 1638h481l24 -84l7 84h512l-143 -1638h-482l-23 84l-7 -84h-512zM76 41h430l23 281l77 -281h412l135 1556h-430l-24 -280l-76 280h-412zM142 102l125 1434h307l155 -573l50 573h307l-124 -1434h-308l-154 574l-50 -574h-308z" />
<glyph unicode="O" d="M54 264l97 1110l287 264h496l241 -264l-97 -1110l-287 -264h-496zM96 283l221 -242h459l262 242l95 1073l-222 241h-458l-263 -241zM160 307l90 1024l222 205h410l187 -205l-90 -1024l-222 -205h-410zM476 410h205l72 819h-205z" />
<glyph unicode="P" horiz-adv-x="1178" d="M31 0l143 1638h760l241 -264l-48 -547l-287 -264h-248l-49 -563h-512zM76 41h430l49 563h270l262 242l46 510l-222 241h-700zM142 102l125 1434h615l187 -205l-41 -461l-222 -204h-307l-49 -564h-308zM525 973h205l23 256h-205z" />
<glyph unicode="Q" horiz-adv-x="1260" d="M54 264l97 1110l287 264h496l241 -264l-84 -964h81l-35 -410h-842zM96 283l221 -242h783l28 328h-81l86 987l-222 241h-458l-263 -241zM160 307l90 1024l222 205h410l187 -205l-81 -921l-111 -103h184l-18 -205h-696zM476 410h205l72 819h-205z" />
<glyph unicode="R" d="M31 0l143 1638h760l241 -264l-39 -454l-110 -101l91 -100l-62 -719h-1024zM76 41h942l57 659l-108 119l129 119l37 418l-222 241h-700zM142 102l125 1434h615l187 -205l-33 -368l-155 -144l131 -143l-50 -574h-308l49 564h-204l-49 -564h-308zM525 973h205l23 256h-205z " />
<glyph unicode="S" d="M54 264l31 350h213l-195 213l48 547l287 264h496l241 -264l-31 -350h-213l194 -213l-47 -547l-287 -264h-496zM96 283l221 -242h459l262 242l45 510l-248 272h272l26 291l-222 241h-458l-263 -241l-45 -510l249 -273h-272zM160 307l18 205h307l-9 -102h205l22 256h-307 l-187 204l41 461l222 205h410l187 -205l-18 -205h-308l10 103h-205l-23 -256h308l187 -205l-41 -461l-222 -205h-410z" />
<glyph unicode="T" horiz-adv-x="1126" d="M27 1126l45 512h1126l-45 -512h-307l-98 -1126h-512l98 1126h-307zM72 1167h307l-98 -1126h430l98 1126h307l37 430h-1044zM138 1229l27 307h921l-26 -307h-307l-99 -1127h-307l98 1127h-307z" />
<glyph unicode="U" d="M54 264l120 1374h1024l-120 -1374l-287 -264h-496zM96 283l221 -242h459l262 242l115 1314h-942zM160 307l107 1229h307l-98 -1126h205l98 1126h307l-107 -1229l-222 -205h-410z" />
<glyph unicode="V" horiz-adv-x="1188" d="M72 1638h516l38 -452l117 452h517l-447 -1638h-580zM117 1597l153 -1556h512l424 1556h-432l-169 -653l-56 653h-432zM185 1536h308l80 -956l247 956h307l-391 -1434h-409z" />
<glyph unicode="W" horiz-adv-x="1597" d="M72 1638h514l38 -319l76 319h340l22 -319l93 319h514l-446 -1638h-992zM117 1597l153 -1556h432l43 192l17 -192h430l424 1556h-430l-151 -507l-34 507h-270l-122 -507l-62 507h-430zM185 1536h308l95 -793l191 793h164l54 -793l233 793h307l-391 -1434h-328l-40 478 l-124 -478h-327z" />
<glyph unicode="X" horiz-adv-x="1233" d="M-71 0l421 819l-278 819h530l69 -200l103 200h531l-424 -819l280 -819h-530l-69 201l-103 -201h-530zM-5 41h441l135 264l91 -264h440l-266 778l401 778h-440l-135 -264l-91 264h-442l266 -778zM93 102l370 717l-245 717h307l123 -358l185 358h307l-370 -717l245 -717 h-307l-123 359l-185 -359h-307z" />
<glyph unicode="Y" horiz-adv-x="1225" d="M72 1638h530l63 -217l103 217h528l-433 -880l-66 -758h-512l66 758zM129 1597l263 -831l-62 -725h430l62 725l411 831h-440l-138 -288l-86 288h-440zM214 1536h307l119 -399l188 399h308l-373 -758l-60 -676h-307l60 676z" />
<glyph unicode="Z" d="M31 0l38 436l439 690h-379l45 512h1024l-38 -436l-439 -690h379l-45 -512h-1024zM76 41h942l37 430h-408l473 741l33 385h-942l-37 -430h408l-473 -741zM142 102l27 308l522 819h-450l26 307h819l-26 -307l-522 -819h450l-26 -308h-820z" />
<glyph unicode="[" horiz-adv-x="922" d="M31 0l143 1638h717l-45 -512h-205l-53 -614h205l-45 -512h-717zM76 41h635l37 430h-205l61 696h205l37 430h-635zM142 102l125 1434h512l-26 -307h-205l-72 -819h205l-27 -308h-512z" />
<glyph unicode="\" horiz-adv-x="825" d="M63 1550l515 88l184 -1550l-512 -88zM108 1516l179 -1469l431 76l-179 1468zM175 1466l308 54l167 -1348l-308 -53z" />
<glyph unicode="]" horiz-adv-x="922" d="M31 0l45 512h205l53 614h-205l45 512h717l-143 -1638h-717zM76 41h635l135 1556h-635l-37 -430h205l-62 -696h-204zM142 102l27 308h205l71 819h-204l26 307h512l-125 -1434h-512z" />
<glyph unicode="a" horiz-adv-x="1094" d="M-65 0l409 1495h539l145 -1495h-485l-15 184h-59l-49 -184h-485zM-11 41h400l48 184h129l16 -184h401l-139 1413h-471zM67 102l352 1291h368l127 -1291h-276l-14 185h-234l-47 -185h-276zM463 563h135l-33 400z" />
<glyph unicode="b" horiz-adv-x="1165" d="M37 0l131 1495h698l223 -244l-37 -417l-94 -86l96 -105l-33 -381l-286 -262h-698zM82 41h639l260 240l31 344l-113 123l114 104l33 381l-202 221h-639zM148 102l113 1291h553l168 -185l-29 -331l-140 -129l134 -148l-25 -295l-221 -203h-553zM450 379h184l19 229h-184z M494 885h184l19 231h-184z" />
<glyph unicode="c" horiz-adv-x="1147" d="M58 244l88 1007l266 244h454l223 -244l-37 -422h-338l-15 -163h338l-37 -422l-265 -244h-454zM101 262l202 -221h418l241 221l31 363h-338l21 245h338l32 363l-202 221h-418l-241 -221zM165 287l80 921l200 185h369l168 -185l-24 -276h-276l15 184h-184l-63 -737h184 l15 184h277l-24 -276l-201 -185h-368z" />
<glyph unicode="d" horiz-adv-x="1147" d="M37 0l131 1495h698l223 -244l-89 -1007l-265 -244h-698zM82 41h639l241 221l84 971l-202 221h-639zM148 102l113 1291h553l168 -185l-80 -921l-201 -185h-553zM450 379h184l63 737h-184z" />
<glyph unicode="e" horiz-adv-x="1055" d="M37 0l131 1495h850l-42 -481h-369l-3 -27h369l-42 -481h-369l-2 -25h369l-42 -481h-850zM82 41h768l35 399h-369l9 107h369l35 399h-369l9 109h369l35 399h-768zM148 102l113 1291h645l-24 -277h-369l-19 -231h368l-24 -277h-369l-19 -229h368l-24 -277h-646z" />
<glyph unicode="f" horiz-adv-x="1004" d="M37 0l131 1495h850l-42 -481h-369l-3 -27h369l-42 -481h-369l-44 -506h-481zM82 41h399l44 506h369l35 399h-369l9 109h369l35 399h-768zM148 102l113 1291h645l-24 -277h-369l-19 -231h368l-24 -277h-369l-44 -506h-277z" />
<glyph unicode="g" horiz-adv-x="1147" d="M58 244l88 1007l266 244h454l223 -244l-89 -1007l-265 -244h-454zM101 262l202 -221h418l241 221l84 971l-202 221h-418l-241 -221zM165 287l80 921l200 185h369l168 -185l-24 -276h-276l15 184h-184l-63 -737h184l11 137h-92l25 277h368l-44 -506l-201 -185h-368z" />
<glyph unicode="h" horiz-adv-x="1147" d="M37 0l131 1495h942l-131 -1495h-942zM82 41h860l123 1413h-860zM148 102l113 1291h277l-44 -508h184l44 508h276l-112 -1291h-277l44 506h-184l-44 -506h-277z" />
<glyph unicode="i" horiz-adv-x="686" d="M37 0l131 1495h481l-131 -1495h-481zM82 41h399l123 1413h-399zM148 102l113 1291h277l-113 -1291h-277z" />
<glyph unicode="j" horiz-adv-x="1096" d="M7 244l37 422h461l73 829h481l-110 -1251l-265 -244h-455zM50 262l202 -221h418l240 221l104 1192h-400l-71 -829h-461zM114 287l23 276h277l-16 -184h185l88 1014h276l-96 -1106l-201 -185h-368z" />
<glyph unicode="k" horiz-adv-x="1190" d="M37 0l131 1495h985l-332 -747l201 -748h-985zM82 41h399l20 223l60 -223h408l-193 707l316 706h-408l-99 -223l19 223h-399zM148 102l113 1291h277l-45 -516l229 516h276l-287 -645l175 -646h-277l-139 516l-45 -516h-277z" />
<glyph unicode="l" horiz-adv-x="1055" d="M37 0l131 1495h481l-89 -1014h369l-42 -481h-850zM82 41h768l35 399h-369l88 1014h-399zM148 102l113 1291h277l-88 -1014h368l-24 -277h-646z" />
<glyph unicode="m" horiz-adv-x="1331" d="M45 0l130 1495h449l90 -287l139 287h449l-131 -1495h-481l2 31l-99 -204l-65 204l-2 -31h-481zM89 41h399l18 203l96 -306l150 306l-18 -203h400l123 1413h-378l-176 -356l-111 356h-379zM156 102l113 1291h277l143 -461l225 461h277l-114 -1291h-276l41 461l-226 -461 l-143 461l-41 -461h-276z" />
<glyph unicode="n" horiz-adv-x="1147" d="M37 0l131 1495h942l-131 -1495h-942zM82 41h399l20 223l60 -223h381l123 1413h-399l-20 -223l-60 223h-381zM148 102l113 1291h277l139 -516l45 516h276l-112 -1291h-277l-139 516l-45 -516h-277z" />
<glyph unicode="o" horiz-adv-x="1147" d="M58 244l88 1007l266 244h454l223 -244l-89 -1007l-265 -244h-454zM101 262l202 -221h418l241 221l84 971l-202 221h-418l-241 -221zM165 287l80 921l200 185h369l168 -185l-80 -921l-201 -185h-368zM450 379h184l63 737h-184z" />
<glyph unicode="p" horiz-adv-x="1096" d="M37 0l131 1495h698l223 -244l-45 -499l-265 -246h-217l-44 -506h-481zM82 41h399l44 506h240l241 221l40 465l-202 221h-639zM148 102l113 1291h553l168 -185l-36 -415l-201 -185h-276l-44 -506h-277zM494 885h184l19 231h-184z" />
<glyph unicode="q" horiz-adv-x="1169" d="M58 244l88 1007l266 244h454l223 -244l-76 -862h73l-33 -389h-772zM101 262l202 -221h713l26 307h-73l77 885l-202 221h-418l-241 -221zM165 287l80 921l200 185h369l168 -185l-72 -829l-100 -92h166l-17 -185h-626zM450 379h184l63 737h-184z" />
<glyph unicode="r" horiz-adv-x="1147" d="M37 0l131 1495h698l223 -244l-37 -417l-94 -86l79 -86l-58 -662h-942zM82 41h860l52 602l-95 105l114 104l33 381l-202 221h-639zM148 102l113 1291h553l168 -185l-29 -331l-140 -129l118 -130l-45 -516h-277l44 506h-184l-44 -506h-277zM494 885h184l19 231h-184z" />
<glyph unicode="s" horiz-adv-x="1147" d="M58 248l29 330h178l-163 178l44 499l266 244h454l223 -244l-29 -329h-178l162 -178l-44 -500l-265 -244h-454zM101 266l202 -221h418l241 221l39 465l-215 236h236l24 270l-202 221h-418l-241 -221l-40 -465l215 -235h-235zM152 287l16 184h276l-8 -92h185l20 229h-276 l-169 185l36 415l201 185h369l168 -185l-17 -184h-276l8 92h-184l-21 -231h277l169 -185l-37 -413l-200 -185h-368z" />
<glyph unicode="t" horiz-adv-x="1034" d="M24 1014l42 481h1034l-42 -481h-277l-89 -1014h-481l89 1014h-276zM68 1055h276l-88 -1014h399l88 1014h277l35 399h-953zM134 1116l25 277h829l-24 -277h-277l-88 -1014h-276l88 1014h-277z" />
<glyph unicode="u" horiz-adv-x="1147" d="M58 244l110 1251h942l-110 -1251l-265 -244h-454zM101 262l202 -221h418l241 221l103 1192h-860zM165 287l96 1106h277l-88 -1014h184l88 1014h276l-96 -1106l-201 -185h-368z" />
<glyph unicode="v" horiz-adv-x="1094" d="M66 1495h485l30 -356l93 356h485l-407 -1495h-541zM111 1454l139 -1413h471l385 1413h-401l-145 -559l-48 559h-401zM179 1393h277l72 -861l223 861h276l-352 -1291h-369z" />
<glyph unicode="w" horiz-adv-x="1462" d="M66 1495h483l28 -240l58 240h323l16 -240l70 240h484l-408 -1495h-909zM111 1454l139 -1413h397l33 127l12 -127h398l385 1413h-400l-127 -430l-28 430h-254l-103 -430l-53 430h-399zM179 1393h277l85 -713l173 713h147l48 -713l210 713h277l-353 -1291h-294l-36 430 l-112 -430h-295z" />
<glyph unicode="x" horiz-adv-x="1141" d="M-65 0l387 748l-256 747h499l56 -166l86 166h499l-387 -747l256 -748h-500l-57 166l-84 -166h-499zM2 41h410l115 227l79 -227h410l-240 707l363 706h-410l-118 -227l-76 227h-410l240 -706zM99 102l333 646l-220 645h276l109 -324l168 324h276l-332 -645l220 -646h-277 l-111 322l-165 -322h-277z" />
<glyph unicode="y" horiz-adv-x="1133" d="M66 1495h497l52 -176l85 176h498l-396 -805l-61 -690h-481l61 690zM121 1454l241 -756l-57 -657h400l57 657l373 756h-412l-118 -250l-73 250h-411zM208 1393h276l106 -361l171 361h276l-336 -682l-53 -609h-276l53 609z" />
<glyph unicode="z" horiz-adv-x="1147" d="M37 0l36 406l387 608h-334l42 481h942l-36 -405l-387 -609h334l-42 -481h-942zM82 41h860l35 399h-363l420 660l31 354h-860l-35 -399h362l-419 -660zM148 102l25 277l469 737h-405l24 277h737l-24 -277l-469 -737h405l-24 -277h-738z" />
<glyph unicode="{" horiz-adv-x="1044" d="M94 731l17 176l131 103l31 364l288 264h453l-45 -512h-205l-22 -247l-64 -60l54 -59l-21 -248h204l-45 -512h-452l-241 264l32 365zM137 750l114 -103l-32 -364l221 -242h394l36 430h-204l23 270l-71 78l85 78l24 270h205l37 430h-394l-262 -241l-31 -365l-132 -102z M202 778l6 82l132 103l33 368l222 205h307l-26 -307h-205l-27 -307l-112 -103l94 -102l-27 -307h205l-27 -308h-307l-187 205l32 369z" />
<glyph unicode="|" horiz-adv-x="717" d="M31 0l143 1638h512l-143 -1638h-512zM76 41h430l135 1556h-430zM142 102l125 1434h307l-124 -1434h-308z" />
<glyph unicode="}" horiz-adv-x="1044" d="M31 0l45 512h205l21 248l65 59l-55 60l22 247h-205l45 512h453l240 -264l-31 -364l114 -103l-16 -176l-131 -102l-32 -365l-288 -264h-452zM76 41h393l262 242l32 364l132 103l12 139l-113 102l31 365l-221 241h-393l-37 -430h205l-24 -270l71 -78l-85 -78l-24 -270h-204 zM142 102l27 308h205l26 307l112 102l-93 103l26 307h-204l26 307h307l188 -205l-33 -368l114 -103l-6 -82l-132 -102l-33 -369l-222 -205h-308z" />
<glyph unicode="&#xa1;" horiz-adv-x="717" d="M31 0l45 516l94 610h-41l45 512h512l-45 -512h-41l-12 -610l-45 -516h-512zM76 41h430l41 473l14 653h43l37 430h-430l-37 -430h43l-100 -653zM142 102l36 410l94 614h226l-13 -614l-35 -410h-308zM241 1229l26 307h307l-26 -307h-307z" />
<glyph unicode="&#xa2;" horiz-adv-x="1147" d="M68 520l69 803l235 215l8 100h512l-8 -100l195 -215l-69 -803l-235 -215l-8 -100h-512l8 100zM110 539l196 -215l-7 -78h430l7 78l234 215l67 766l-196 215l7 77h-430l-7 -77l-234 -215zM173 563l64 717l199 184h31l6 72h307l-6 -72h31l169 -184l-25 -276h-276l16 184 h-184l-47 -533h184l16 185h277l-25 -277l-199 -184h-31l-6 -72h-307l6 72h-31z" />
<glyph unicode="&#xad;" horiz-adv-x="1024" d="M85 614l35 410h819l-35 -410h-819zM129 655h737l29 328h-737zM196 717l18 205h614l-18 -205h-614z" />
<glyph unicode="&#xbf;" d="M54 264l47 547l288 264h248l49 563h512l-71 -811l-231 -213h213l-31 -350l-287 -264h-496zM96 283l221 -242h459l262 242l26 290h-272l295 273l66 751h-430l-49 -563h-271l-262 -241zM160 307l41 461l222 205h307l13 153h308l-23 -256l-222 -204h-307l-23 -256h205l9 102 h307l-18 -205l-222 -205h-410zM753 1229l26 307h307l-26 -307h-307z" />
<glyph unicode="&#x2000;" horiz-adv-x="819" />
<glyph unicode="&#x2001;" horiz-adv-x="1638" />
<glyph unicode="&#x2002;" horiz-adv-x="819" />
<glyph unicode="&#x2003;" horiz-adv-x="1638" />
<glyph unicode="&#x2004;" horiz-adv-x="546" />
<glyph unicode="&#x2005;" horiz-adv-x="409" />
<glyph unicode="&#x2006;" horiz-adv-x="273" />
<glyph unicode="&#x2007;" horiz-adv-x="273" />
<glyph unicode="&#x2008;" horiz-adv-x="204" />
<glyph unicode="&#x2009;" horiz-adv-x="327" />
<glyph unicode="&#x200a;" horiz-adv-x="91" />
<glyph unicode="&#x2010;" horiz-adv-x="1024" d="M85 614l35 410h819l-35 -410h-819zM129 655h737l29 328h-737zM196 717l18 205h614l-18 -205h-614z" />
<glyph unicode="&#x2011;" horiz-adv-x="1024" d="M85 614l35 410h819l-35 -410h-819zM129 655h737l29 328h-737zM196 717l18 205h614l-18 -205h-614z" />
<glyph unicode="&#x2012;" horiz-adv-x="1024" d="M85 614l35 410h819l-35 -410h-819zM129 655h737l29 328h-737zM196 717l18 205h614l-18 -205h-614z" />
<glyph unicode="&#x2013;" horiz-adv-x="1194" d="M85 614l42 410h982l-42 -410h-982zM138 655h883l35 328h-883zM218 717l22 205h736l-22 -205h-736z" />
<glyph unicode="&#x2014;" horiz-adv-x="2218" d="M85 614l84 410h1964l-84 -410h-1964zM191 655h1767l69 328h-1767zM351 717l43 205h1473l-43 -205h-1473z" />
<glyph unicode="&#x2018;" horiz-adv-x="717" d="M65 776l39 453l446 409l-31 -350h103l-45 -512h-512zM110 817h430l37 430h-103l26 291l-357 -328zM176 879l27 307l223 205l-18 -205h102l-27 -307h-307z" />
<glyph unicode="&#x2019;" horiz-adv-x="717" d="M95 1126l45 512h512l-40 -452l-445 -410l31 350h-103zM140 1167h103l-26 -290l356 327l34 393h-430zM207 1229l26 307h308l-27 -307l-223 -205l18 205h-102z" />
<glyph unicode="&#x201a;" horiz-adv-x="717" d="M95 0l45 512h512l-40 -453l-445 -408l31 349h-103zM140 41h103l-26 -290l356 327l34 393h-430zM207 102l26 308h308l-27 -308l-223 -203l18 203h-102z" />
<glyph unicode="&#x201c;" horiz-adv-x="1106" d="M65 776l39 453l446 409l-31 -350h39l381 350l-31 -350h103l-45 -512h-901zM110 817h819l37 430h-103l26 291l-317 -291h-98l26 291l-357 -328zM176 879l27 307l223 205l-18 -205h102l-27 -307h-307zM565 879l27 307l223 205l-18 -205h102l-27 -307h-307z" />
<glyph unicode="&#x201d;" horiz-adv-x="1106" d="M95 1126l45 512h901l-40 -452l-445 -410l31 350h-39l-381 -350l31 350h-103zM140 1167h103l-26 -290l317 290h98l-26 -290l357 327l33 393h-819zM207 1229l26 307h308l-27 -307l-223 -205l18 205h-102zM596 1229l27 307h307l-27 -307l-223 -205l18 205h-102z" />
<glyph unicode="&#x201e;" horiz-adv-x="1106" d="M95 0l45 512h901l-40 -453l-445 -408l31 349h-39l-381 -349l31 349h-103zM140 41h103l-26 -290l317 290h98l-26 -290l357 327l33 393h-819zM207 102l26 308h308l-27 -308l-223 -203l18 203h-102zM596 102l27 308h307l-27 -308l-223 -203l18 203h-102z" />
<glyph unicode="&#x202f;" horiz-adv-x="327" />
<glyph unicode="&#x205f;" horiz-adv-x="409" />
<glyph unicode="&#x25fc;" horiz-adv-x="1495" d="M0 0v1495h1495v-1495h-1495z" />
</font>
</defs>
</svg>
